<?xml version="1.0" standalone="no"?>
<!DOCTYPE svg PUBLIC "-//W3C//DTD SVG 20010904//EN"
 "http://www.w3.org/TR/2001/REC-SVG-20010904/DTD/svg10.dtd">
<svg version="1.0" xmlns="http://www.w3.org/2000/svg"
 width="700.000000pt" height="700.000000pt" viewBox="0 0 700.000000 700.000000"
 preserveAspectRatio="xMidYMid meet">
<metadata>
Created by potrace 1.14, written by Peter Selinger 2001-2017
</metadata>
<g transform="translate(0.000000,700.000000) scale(0.100000,-0.100000)"
fill="#000000" stroke="none">
<path d="M3905 5294 c-391 -196 -1398 -700 -2238 -1121 -841 -421 -1527 -767
-1525 -769 3 -2 507 -256 1120 -564 l1116 -560 1539 772 c846 424 1855 929
2242 1123 l703 352 -33 20 c-52 30 -2197 1103 -2206 1103 -5 0 -328 -160 -718
-356z m-245 -938 c156 -17 280 -51 395 -107 296 -145 315 -379 45 -540 -69
-41 -246 -103 -320 -113 -25 -4 -72 -10 -105 -15 -33 -5 -112 -9 -175 -9 -433
-1 -791 177 -790 394 1 89 50 166 150 234 121 82 288 137 475 155 39 4 71 8
72 9 5 4 198 -2 253 -8z"/>
<path d="M5595 3734 c-610 -306 -1584 -794 -2164 -1084 l-1054 -528 -1041 523
-1041 523 -79 -40 c-43 -22 -76 -41 -75 -42 14 -12 2226 -1116 2237 -1116 8 0
397 192 865 426 469 235 1474 738 2234 1118 760 380 1382 693 1382 696 1 5
-143 80 -152 80 -1 0 -501 -250 -1112 -556z"/>
<path d="M4545 2890 c-1182 -594 -2156 -1079 -2163 -1080 -8 0 -480 234 -1051
519 l-1038 520 -44 -23 c-24 -12 -59 -30 -78 -40 l-34 -18 229 -115 c1084
-544 2005 -1003 2014 -1003 11 0 4459 2227 4473 2239 7 7 -134 82 -151 80 -4
0 -974 -486 -2157 -1079z"/>
<path d="M4537 2568 l-2159 -1082 -1043 522 -1042 523 -77 -39 c-75 -38 -76
-40 -54 -53 13 -8 517 -262 1120 -564 l1097 -549 888 446 c488 245 1497 750
2241 1122 743 372 1352 678 1352 680 0 7 -141 76 -153 76 -6 -1 -983 -487
-2170 -1082z"/>
</g>
</svg>
