<svg width="620" height="620" viewBox="0 0 620 620" fill="none" xmlns="http://www.w3.org/2000/svg">
<path d="M54.9443 320.106C54.9443 320.106 57.8583 410.626 133.399 470.89C208.94 531.154 313.596 535.519 398.325 541.248C483.054 546.976 548.08 499.013 558 426.56C567.92 354.107 503.068 332.779 467.939 250.232C432.81 167.685 435.934 140.566 361.609 89.8008C287.283 39.0352 170.946 70.1468 109.988 157.12C49.0295 244.094 54.9443 320.106 54.9443 320.106Z" fill="#90CAF9"/>
<path opacity="0.7" d="M54.9443 320.106C54.9443 320.106 57.8583 410.626 133.399 470.89C208.94 531.154 313.596 535.519 398.325 541.248C483.054 546.976 548.08 499.013 558 426.56C567.92 354.107 503.068 332.779 467.939 250.232C432.81 167.685 435.934 140.566 361.609 89.8008C287.283 39.0352 170.946 70.1468 109.988 157.12C49.0295 244.094 54.9443 320.106 54.9443 320.106Z" fill="white"/>
<path d="M423.447 504.94C472.892 504.94 512.975 493.049 512.975 478.38C512.975 463.71 472.892 451.819 423.447 451.819C374.002 451.819 333.919 463.71 333.919 478.38C333.919 493.049 374.002 504.94 423.447 504.94Z" fill="#263238" stroke="#263238" stroke-width="1.193" stroke-linecap="round" stroke-linejoin="round"/>
<path d="M423.448 464.033C465.794 464.033 501.258 472.713 510.57 484.48C512.04 482.778 512.889 480.627 512.976 478.38C512.976 463.698 472.886 451.806 423.448 451.806C374.009 451.806 333.907 463.698 333.907 478.38C333.994 480.627 334.843 482.778 336.313 484.48C345.625 472.762 381.089 464.033 423.448 464.033Z" fill="white" stroke="#263238" stroke-width="1.193" stroke-linecap="round" stroke-linejoin="round"/>
<path d="M411.221 501.605C381.312 500.253 358.744 494.165 358.744 486.725C358.76 485.913 359.014 485.124 359.476 484.456" stroke="white" stroke-width="1.193" stroke-linecap="round" stroke-linejoin="round"/>
<path d="M480.624 479.483C485.745 481.653 488.672 484.133 488.672 486.774C488.672 495.12 459.581 501.878 423.708 501.878H422.158" stroke="white" stroke-width="1.193" stroke-linecap="round" stroke-linejoin="round"/>
<path d="M367.486 479.198C378.733 474.697 399.726 471.659 423.708 471.659C437.354 471.553 450.982 472.67 464.43 474.994" stroke="white" stroke-width="1.193" stroke-linecap="round" stroke-linejoin="round"/>
<path d="M410.366 491.958C402.789 490.904 397.718 488.982 397.718 486.774C397.718 483.439 409.361 480.736 423.758 480.736C438.154 480.736 449.736 483.439 449.736 486.774C449.736 489.639 441.18 492.032 429.697 492.652" stroke="white" stroke-width="1.193" stroke-linecap="round" stroke-linejoin="round"/>
<path d="M63.8848 371.603C102.932 360.505 185.095 338.607 230.442 336.958C291.4 334.8 394.32 379.043 458.577 386.793C522.834 394.543 566.01 392.336 566.01 392.336" stroke="#263238" stroke-width="1.193" stroke-linecap="round" stroke-linejoin="round"/>
<path d="M42.1599 377.94C42.1599 377.94 45.5327 376.91 51.4475 375.187" stroke="#263238" stroke-width="1.193" stroke-linecap="round" stroke-linejoin="round"/>
<path d="M548.663 308.909C526.155 303.965 503.127 301.787 480.091 302.424C432.45 304.023 380.891 310.322 317.142 318.544C253.394 326.765 162.614 281.344 100.886 298.195C39.1592 315.047 43.8464 320.118 43.8464 320.118" stroke="#263238" stroke-width="1.193" stroke-linecap="round" stroke-linejoin="round"/>
<path d="M566.221 313.472C566.221 313.472 563.816 312.678 559.463 311.525" stroke="#263238" stroke-width="1.193" stroke-linecap="round" stroke-linejoin="round"/>
<path d="M451.918 196.354C451.232 193.567 449.631 191.09 447.372 189.32C445.113 187.55 442.326 186.588 439.456 186.588C436.586 186.588 433.798 187.55 431.539 189.32C429.28 191.09 427.68 193.567 426.994 196.354H451.918Z" stroke="#263238" stroke-width="1.193" stroke-linecap="round" stroke-linejoin="round"/>
<path d="M577.84 196.354C577.087 193.178 575.373 190.311 572.932 188.143C570.492 185.975 567.443 184.612 564.2 184.239C565.22 178.853 565.036 173.307 563.663 168C562.289 162.692 559.759 157.754 556.255 153.538C552.75 149.322 548.356 145.933 543.389 143.614C538.422 141.294 533.003 140.101 527.521 140.12C518.766 140.12 510.291 143.2 503.578 148.82C496.866 154.44 492.344 162.242 490.804 170.86C487.284 168.107 483.06 166.399 478.616 165.931C474.171 165.464 469.685 166.255 465.669 168.216C461.653 170.176 458.269 173.226 455.903 177.017C453.537 180.809 452.285 185.189 452.29 189.658C452.297 191.933 452.627 194.196 453.269 196.379L577.84 196.354Z" stroke="#263238" stroke-width="1.193" stroke-linecap="round" stroke-linejoin="round"/>
<path d="M230.107 226.288C229.765 224.866 228.955 223.6 227.807 222.695C226.659 221.789 225.239 221.297 223.776 221.297C222.314 221.297 220.894 221.789 219.746 222.695C218.598 223.6 217.788 224.866 217.446 226.288H230.107Z" stroke="#263238" stroke-width="1.193" stroke-linecap="round" stroke-linejoin="round"/>
<path d="M294.029 226.288C293.652 224.666 292.784 223.201 291.544 222.091C290.303 220.982 288.75 220.282 287.097 220.088C287.694 217.586 287.774 214.989 287.334 212.455C286.894 209.922 285.943 207.504 284.538 205.35C283.133 203.196 281.304 201.351 279.162 199.927C277.02 198.503 274.611 197.531 272.081 197.068C269.551 196.606 266.954 196.664 264.447 197.239C261.941 197.814 259.577 198.893 257.501 200.411C255.426 201.929 253.681 203.855 252.373 206.069C251.066 208.284 250.223 210.741 249.897 213.292C248.11 211.896 245.967 211.029 243.711 210.792C241.456 210.555 239.179 210.956 237.14 211.95C235.102 212.944 233.384 214.491 232.182 216.414C230.98 218.338 230.342 220.56 230.342 222.828C230.348 223.986 230.515 225.138 230.838 226.25L294.029 226.288Z" stroke="#263238" stroke-width="1.193" stroke-linecap="round" stroke-linejoin="round"/>
<path d="M287.593 246.301C287.379 245.403 286.869 244.603 286.144 244.031C285.42 243.459 284.523 243.147 283.6 243.147C282.677 243.147 281.781 243.459 281.056 244.031C280.332 244.603 279.821 245.403 279.607 246.301H287.593Z" stroke="#263238" stroke-width="1.193" stroke-linecap="round" stroke-linejoin="round"/>
<path d="M327.943 246.301C327.702 245.282 327.152 244.363 326.368 243.668C325.585 242.973 324.606 242.537 323.566 242.42C323.7 241.696 323.767 240.961 323.764 240.225C323.727 237.268 322.595 234.429 320.586 232.257C318.578 230.086 315.835 228.736 312.89 228.47C309.944 228.203 307.004 229.038 304.638 230.813C302.272 232.588 300.648 235.177 300.08 238.08C298.952 237.199 297.598 236.653 296.175 236.505C294.751 236.356 293.314 236.61 292.028 237.238C290.742 237.866 289.658 238.843 288.9 240.058C288.142 241.272 287.741 242.675 287.742 244.106C287.743 244.837 287.847 245.563 288.052 246.264L327.943 246.301Z" stroke="#263238" stroke-width="1.193" stroke-linecap="round" stroke-linejoin="round"/>
<path d="M201.686 389.149C201.25 389.155 200.82 389.039 200.446 388.814C199.904 388.48 199.511 387.949 199.349 387.333C199.188 386.716 199.27 386.061 199.578 385.504C200.186 384.437 353.499 217.248 423.646 155.942C423.891 155.746 424.201 155.649 424.514 155.672C424.827 155.695 425.119 155.836 425.333 156.066C425.536 156.313 425.637 156.628 425.614 156.947C425.591 157.266 425.446 157.563 425.208 157.778C355.409 218.823 204.364 386.88 203.757 387.934C203.55 388.302 203.25 388.608 202.886 388.822C202.522 389.035 202.108 389.148 201.686 389.149Z" fill="#263238"/>
<path d="M210.155 355.88C210.155 355.88 217.756 347.77 222.32 347.77C226.883 347.77 235.501 355.372 234.992 359.426C234.484 363.481 226.883 359.935 226.883 359.935C226.883 359.935 219.778 369.57 212.685 368.044C205.592 366.519 210.155 355.88 210.155 355.88Z" fill="#90CAF9" stroke="#263238" stroke-width="1.193" stroke-linecap="round" stroke-linejoin="round"/>
<path d="M226.92 359.91C226.92 359.91 231.57 363.134 231.979 365.403C232.389 367.672 226.821 374.083 220.633 375.522C214.446 376.96 211.135 373.451 212.995 370.152C214.855 366.854 222.233 360.208 226.92 359.91Z" fill="#90CAF9" stroke="#263238" stroke-width="1.193" stroke-linecap="round" stroke-linejoin="round"/>
<path d="M417.88 330.534V162.775C417.88 162.775 414.495 174.914 414.495 175.795" stroke="#263238" stroke-width="1.193" stroke-linecap="round" stroke-linejoin="round"/>
<path d="M487.841 339.376H359.203V442.444H487.841V339.376Z" fill="#90CAF9" stroke="#263238" stroke-width="1.193" stroke-linecap="round" stroke-linejoin="round"/>
<path d="M419.715 338.942V333.039C419.715 332.648 419.56 332.273 419.283 331.996C419.006 331.719 418.631 331.564 418.24 331.564C417.848 331.564 417.473 331.719 417.196 331.996C416.92 332.273 416.764 332.648 416.764 333.039V338.942H419.715Z" fill="#263238"/>
<path d="M431.52 324.582V324.88C431.4 324.654 431.222 324.465 431.004 324.332C430.786 324.199 430.536 324.127 430.28 324.124C429.885 324.124 429.507 324.28 429.228 324.559C428.949 324.838 428.792 325.217 428.792 325.612V341.372C428.792 342.577 428.314 343.732 427.464 344.585C426.613 345.439 425.459 345.919 424.254 345.923C423.63 345.924 423.013 345.793 422.443 345.538C422.114 346.029 421.971 346.62 422.039 347.207C422.107 347.793 422.383 348.336 422.815 348.738C423.29 348.827 423.771 348.873 424.254 348.874C425.239 348.874 426.214 348.68 427.125 348.303C428.035 347.926 428.862 347.373 429.558 346.677C430.255 345.98 430.808 345.153 431.185 344.243C431.562 343.333 431.756 342.357 431.756 341.372V334.068H435.153L431.52 324.582Z" fill="#263238"/>
<path d="M418.004 161.2C418.004 161.2 420.633 151.863 418.302 152.731C415.97 153.599 418.004 161.2 418.004 161.2Z" stroke="#263238" stroke-width="1.193" stroke-linecap="round" stroke-linejoin="round"/>
<path d="M418.004 161.2C418.004 161.2 408.084 157.691 408.964 160.902C409.845 164.114 418.004 161.2 418.004 161.2Z" stroke="#263238" stroke-width="1.193" stroke-linecap="round" stroke-linejoin="round"/>
<path d="M204.092 242.581C204.092 242.581 191.853 235.724 167.847 239.159C143.84 242.594 139.265 262.384 143.183 282.956C147.101 303.527 169.806 320.949 173.241 319.486C176.675 318.023 172.261 271.969 180.098 263.153C187.935 254.336 213.404 255.812 214.818 248.955C216.231 242.098 204.092 242.581 204.092 242.581Z" fill="#263238" stroke="#263238" stroke-width="1.193" stroke-linecap="round" stroke-linejoin="round"/>
<path d="M161.423 254.795L163.903 271.002C163.903 271.002 148.527 312.976 151.02 318.804C153.512 324.632 176.774 326.69 176.774 326.69C176.774 326.69 214.594 331.266 225.816 326.69C237.038 322.115 231.223 308.822 229.97 305.09C228.718 301.357 221.662 271.424 221.662 271.424C221.662 271.424 224.142 264.356 224.142 260.623C224.142 256.891 223.721 246.487 222.059 243.995C220.398 241.502 191.307 238.588 178.424 240.672C165.54 242.755 159.762 246.078 161.423 254.795Z" fill="#757575" stroke="#263238" stroke-width="1.193" stroke-linecap="round" stroke-linejoin="round"/>
<path d="M168.082 273.507C168.082 273.507 167.661 309.653 169.744 316.721C171.827 323.789 180.135 332.097 197.582 330.014C215.029 327.93 216.703 311.314 216.703 311.314L215.463 272.676L168.082 273.507Z" fill="white" stroke="#263238" stroke-width="1.193" stroke-linecap="round" stroke-linejoin="round"/>
<path d="M198.003 299.472C198.006 300.091 197.825 300.696 197.483 301.212C197.141 301.727 196.654 302.13 196.083 302.368C195.512 302.607 194.883 302.67 194.276 302.551C193.669 302.432 193.112 302.135 192.673 301.699C192.235 301.262 191.936 300.705 191.815 300.099C191.693 299.493 191.754 298.864 191.99 298.292C192.226 297.72 192.627 297.231 193.141 296.888C193.655 296.544 194.26 296.36 194.878 296.36C195.288 296.358 195.694 296.438 196.073 296.593C196.452 296.749 196.797 296.978 197.087 297.267C197.378 297.556 197.608 297.9 197.765 298.278C197.922 298.657 198.003 299.063 198.003 299.472Z" stroke="#263238" stroke-width="1.193" stroke-miterlimit="10"/>
<path d="M197.582 312.567C197.582 312.979 197.459 313.383 197.23 313.725C197 314.068 196.674 314.335 196.293 314.493C195.911 314.65 195.492 314.69 195.087 314.609C194.683 314.528 194.312 314.328 194.021 314.035C193.73 313.743 193.533 313.371 193.454 312.966C193.375 312.561 193.418 312.141 193.577 311.761C193.737 311.381 194.006 311.056 194.35 310.829C194.694 310.601 195.098 310.481 195.511 310.484C195.784 310.484 196.054 310.538 196.306 310.642C196.558 310.747 196.787 310.901 196.98 311.095C197.172 311.288 197.324 311.518 197.428 311.771C197.531 312.023 197.583 312.294 197.582 312.567Z" fill="#263238"/>
<path d="M185.033 286.142C186.36 287.581 186.818 289.304 186.074 290.011C185.33 290.718 183.594 290.123 182.292 288.697C180.99 287.271 180.494 285.547 181.251 284.84C182.007 284.134 183.706 284.716 185.033 286.142Z" fill="#263238"/>
<path d="M201.909 286.142C200.582 287.581 200.111 289.304 200.868 290.011C201.624 290.718 203.348 290.123 204.588 288.697C205.828 287.271 206.386 285.547 205.629 284.84C204.873 284.134 203.236 284.716 201.909 286.142Z" fill="#263238"/>
<path d="M176.155 281.244C177.085 279.871 178.423 278.823 179.98 278.249C181.537 277.675 183.235 277.604 184.835 278.045" stroke="#263238" stroke-width="1.193" stroke-linecap="round" stroke-linejoin="round"/>
<path d="M201.252 278.504C201.252 278.504 207.179 276.681 209.015 281.703" stroke="#263238" stroke-width="1.193" stroke-linecap="round" stroke-linejoin="round"/>
<path d="M221.266 510.409C221.266 510.409 227.801 506.49 231.421 504.953C231.761 504.797 232.108 504.66 232.463 504.544C235.662 503.477 244.727 504.01 253.245 498.678C261.764 493.346 257.511 486.948 251.113 485.348C244.714 483.749 237.795 481.628 237.795 481.628L236.195 456.568C236.195 456.568 217 461.9 210.602 464.566C204.203 467.232 207.936 505.077 208.469 508.276C209.002 511.475 209.002 513.608 221.266 510.409Z" fill="#263238" stroke="#263238" stroke-width="1.193" stroke-linecap="round" stroke-linejoin="round"/>
<path d="M242.594 498.678C231.434 500.811 231.434 502.944 219.133 505.077C215.53 505.796 211.856 506.096 208.184 505.97C208.308 507.11 208.407 507.916 208.469 508.276C209.002 511.475 209.002 513.608 221.266 510.409C221.266 510.409 227.8 506.49 231.421 504.953C231.76 504.797 232.108 504.66 232.463 504.544C235.662 503.477 244.726 504.01 253.245 498.678C255.986 496.98 257.387 495.157 257.846 493.421C253.004 495.81 247.879 497.577 242.594 498.678Z" fill="white" stroke="#263238" stroke-width="1.193" stroke-linecap="round" stroke-linejoin="round"/>
<path d="M247.033 485.026C247.033 485.026 246.624 514.116 245.793 520.341C244.962 526.566 246.202 534.477 255.713 534.477C265.224 534.477 283.973 528.277 290.619 527.037C297.265 525.797 308.078 522.871 312.641 512.492C317.205 502.113 289.379 503.341 289.379 503.341L291.041 482.149C291.041 482.149 262.409 487.928 247.033 485.026Z" fill="#263238" stroke="#263238" stroke-width="1.193" stroke-linecap="round" stroke-linejoin="round"/>
<path d="M312.691 512.455C313.2 511.446 313.323 510.287 313.038 509.194C310.19 513.061 306.327 516.065 301.878 517.874C291.958 522.028 273.197 526.554 259.073 528.686C252.613 529.629 248.521 528.575 245.954 527.161C246.872 531.191 249.562 534.502 255.75 534.502C265.31 534.502 284.01 528.302 290.656 527.062C297.302 525.822 308.128 522.834 312.691 512.455Z" fill="white" stroke="#263238" stroke-width="1.193" stroke-linecap="round" stroke-linejoin="round"/>
<path d="M289.428 503.304C289.428 503.304 291.499 510.372 285.708 514.947" stroke="white" stroke-width="1.193" stroke-linecap="round" stroke-linejoin="round"/>
<path d="M244.131 469.65C244.131 469.65 243.487 482.286 244.193 484.815C246.847 494.413 247.69 492.168 267.642 491.747C287.593 491.325 295.653 483.364 297.737 478.38C299.82 473.395 297.737 462.582 296.906 458.837C296.075 455.092 289.466 453.877 286.924 454.274C284.382 454.671 245.371 465.496 244.131 469.65Z" fill="#757575" stroke="#263238" stroke-width="1.193" stroke-linecap="round" stroke-linejoin="round"/>
<path d="M106.987 501.233V529.158C106.997 530.25 107.304 531.32 107.877 532.251C108.449 533.182 109.265 533.939 110.236 534.44L155.124 557.616C155.923 558.031 156.805 558.26 157.705 558.286C158.605 558.311 159.499 558.133 160.32 557.764L226.449 532.555C227.504 532.082 228.4 531.314 229.029 530.344C229.658 529.374 229.994 528.243 229.995 527.087V493.334L154.355 516.187L106.987 501.233Z" fill="#90CAF9"/>
<mask id="mask0_6263_24331" style="mask-type:luminance" maskUnits="userSpaceOnUse" x="106" y="493" width="124" height="66">
<path d="M106.987 501.233V529.158C106.997 530.25 107.304 531.32 107.877 532.251C108.449 533.182 109.265 533.939 110.236 534.44L155.124 557.616C155.923 558.031 156.805 558.26 157.705 558.286C158.605 558.311 159.499 558.133 160.32 557.764L226.449 532.555C227.504 532.082 228.4 531.314 229.029 530.344C229.658 529.374 229.994 528.243 229.995 527.087V493.334L154.355 516.187L106.987 501.233Z" fill="white"/>
</mask>
<g mask="url(#mask0_6263_24331)">
<path opacity="0.18" d="M157.691 515.183L154.368 516.187L106.987 501.233V529.158C106.997 530.25 107.304 531.32 107.877 532.251C108.449 533.182 109.265 533.939 110.236 534.44L155.124 557.616C155.918 558.031 156.796 558.26 157.691 558.285V515.183Z" fill="black"/>
</g>
<path d="M106.987 501.233V529.158C106.997 530.25 107.304 531.32 107.877 532.251C108.449 533.182 109.265 533.939 110.236 534.44L155.124 557.616C155.923 558.031 156.805 558.26 157.705 558.286C158.605 558.311 159.499 558.133 160.32 557.764L226.449 532.555C227.504 532.082 228.4 531.314 229.029 530.344C229.658 529.374 229.994 528.243 229.995 527.087V493.334L154.355 516.187L106.987 501.233Z" stroke="#263238" stroke-width="1.193" stroke-linecap="round" stroke-linejoin="round"/>
<path d="M176.08 454.088L103.54 477.4C102.973 477.582 102.479 477.939 102.129 478.421C101.779 478.903 101.591 479.483 101.593 480.078V500.762C101.604 501.283 101.76 501.79 102.042 502.228C102.324 502.666 102.723 503.017 103.193 503.242L153.76 527.31C154.101 527.473 154.47 527.566 154.847 527.583C155.224 527.6 155.601 527.541 155.955 527.409L231.88 499.001C232.417 498.801 232.881 498.443 233.209 497.973C233.536 497.503 233.713 496.945 233.715 496.372L233.852 476.966C233.848 476.324 233.626 475.702 233.223 475.202C232.82 474.702 232.259 474.353 231.632 474.213L177.518 454.014C177.04 453.918 176.546 453.944 176.08 454.088Z" fill="white"/>
<mask id="mask1_6263_24331" style="mask-type:luminance" maskUnits="userSpaceOnUse" x="101" y="453" width="133" height="75">
<path d="M176.08 454.088L103.54 477.4C102.973 477.582 102.479 477.939 102.129 478.421C101.779 478.903 101.591 479.483 101.593 480.078V500.762C101.604 501.283 101.76 501.79 102.042 502.228C102.324 502.666 102.723 503.017 103.193 503.242L153.76 527.31C154.101 527.473 154.47 527.566 154.847 527.583C155.224 527.6 155.601 527.541 155.955 527.409L231.88 499.001C232.417 498.801 232.881 498.443 233.209 497.973C233.536 497.503 233.713 496.945 233.715 496.372L233.852 476.966C233.848 476.324 233.626 475.702 233.223 475.202C232.82 474.702 232.259 474.353 231.632 474.213L177.518 454.014C177.04 453.918 176.546 453.944 176.08 454.088Z" fill="white"/>
</mask>
<g mask="url(#mask1_6263_24331)">
<path d="M153.673 527.298C154.014 527.46 154.384 527.553 154.761 527.57C155.138 527.587 155.514 527.528 155.868 527.397L231.88 499.001C232.417 498.801 232.881 498.443 233.209 497.973C233.536 497.504 233.713 496.945 233.715 496.372L233.852 476.966C233.854 476.305 233.616 475.667 233.182 475.168L154.752 504.134L153.673 527.298Z" fill="#90CAF9"/>
<path opacity="0.5" d="M153.673 527.298C154.014 527.46 154.384 527.553 154.761 527.57C155.138 527.587 155.514 527.528 155.868 527.397L231.88 499.001C232.417 498.801 232.881 498.443 233.209 497.973C233.536 497.504 233.713 496.945 233.715 496.372L233.852 476.966C233.854 476.305 233.616 475.667 233.182 475.168L154.752 504.134L153.673 527.298Z" fill="white"/>
<path d="M101.593 480.016V500.7C101.604 501.221 101.76 501.728 102.042 502.166C102.324 502.604 102.723 502.955 103.193 503.18L153.76 527.31C154.098 527.473 154.465 527.566 154.839 527.583V504.134L101.68 479.533C101.632 479.69 101.603 479.852 101.593 480.016Z" fill="#90CAF9"/>
</g>
<path d="M176.08 454.088L103.54 477.4C102.973 477.582 102.479 477.939 102.129 478.421C101.779 478.903 101.591 479.483 101.593 480.078V500.762C101.604 501.283 101.76 501.79 102.042 502.228C102.324 502.666 102.723 503.017 103.193 503.242L153.76 527.31C154.101 527.473 154.47 527.566 154.847 527.583C155.224 527.6 155.601 527.541 155.955 527.409L231.88 499.001C232.417 498.801 232.881 498.443 233.209 497.973C233.536 497.503 233.713 496.945 233.715 496.372L233.852 476.966C233.848 476.324 233.626 475.702 233.223 475.202C232.82 474.702 232.259 474.353 231.632 474.213L177.518 454.014C177.04 453.918 176.546 453.944 176.08 454.088Z" stroke="#263238" stroke-width="1.193" stroke-linecap="round" stroke-linejoin="round"/>
<path d="M275.714 416.045C275.714 416.045 285.262 420.608 290.259 429.759C295.257 438.91 291.499 456.345 288.585 461.751C285.671 467.158 266.154 469.65 259.507 469.65C252.861 469.65 251.609 468.819 251.609 468.819C251.609 468.819 230.417 472.973 217.112 475.466C203.807 477.958 207.192 446.797 211.296 432.661C215.401 418.525 238.725 411.469 248.285 411.469C257.846 411.469 275.714 416.045 275.714 416.045Z" fill="#263238" stroke="#263238" stroke-width="1.193" stroke-linecap="round" stroke-linejoin="round"/>
<path d="M251.608 468.819C251.608 468.819 269.477 462.619 276.954 446.797" stroke="white" stroke-width="1.193" stroke-linecap="round" stroke-linejoin="round"/>
<path d="M268.646 459.668C274.404 457.254 279.629 453.727 284.022 449.289" stroke="white" stroke-width="1.193" stroke-linecap="round" stroke-linejoin="round"/>
<path d="M226.672 429.759C226.672 429.759 231.632 455.936 229.152 466.736C226.672 477.536 212.115 479.21 208.791 477.958C205.468 476.706 207.13 450.951 207.13 438.067C207.13 425.184 220.026 426.014 226.672 429.759Z" fill="#757575" stroke="#263238" stroke-width="1.193" stroke-linecap="round" stroke-linejoin="round"/>
<path d="M120.702 359.935C120.702 359.935 117.8 376.96 119.871 385.293C120.926 389.934 122.904 394.315 125.687 398.176C125.687 398.176 115.295 413.552 117.379 426.424C119.462 439.295 124.819 440.969 124.819 440.969C124.819 440.969 120.255 464.665 128.539 472.973C136.822 481.281 155.137 490.42 175.497 486.688C195.858 482.955 209.573 482.112 213.727 475.044C217.881 467.976 215.388 436.815 215.388 436.815C215.388 436.815 214.557 402.33 213.727 381.126C212.896 359.922 210.007 342.897 200.012 334.589C190.018 326.281 145.985 339.165 132.693 347.882C119.4 356.599 120.702 359.935 120.702 359.935Z" fill="#90CAF9"/>
<mask id="mask2_6263_24331" style="mask-type:luminance" maskUnits="userSpaceOnUse" x="117" y="331" width="100" height="157">
<path d="M120.702 359.935C120.702 359.935 117.8 376.96 119.871 385.293C120.926 389.934 122.904 394.315 125.687 398.176C125.687 398.176 115.295 413.552 117.379 426.424C119.462 439.295 124.819 440.969 124.819 440.969C124.819 440.969 120.255 464.665 128.539 472.973C136.822 481.281 155.137 490.42 175.497 486.688C195.858 482.955 209.573 482.112 213.727 475.044C217.881 467.976 215.388 436.815 215.388 436.815C215.388 436.815 214.557 402.33 213.727 381.126C212.896 359.922 210.007 342.897 200.012 334.589C190.018 326.281 145.985 339.165 132.693 347.882C119.4 356.599 120.702 359.935 120.702 359.935Z" fill="white"/>
</mask>
<g mask="url(#mask2_6263_24331)">
<path opacity="0.3" d="M123.665 359.935C123.665 359.935 120.751 376.972 122.835 385.293C123.883 389.936 125.862 394.319 128.65 398.176C128.65 398.176 118.259 413.552 120.342 426.424C122.425 439.295 127.782 440.969 127.782 440.969C127.782 440.969 123.207 464.665 131.502 472.973C139.798 481.281 158.15 490.42 178.56 486.688C198.971 482.955 212.648 482.112 216.802 475.044C220.956 467.976 218.463 436.815 218.463 436.815C218.463 436.815 217.633 402.33 216.802 381.126C215.971 359.922 213.082 342.897 203.087 334.589C193.093 326.281 149.061 339.165 135.768 347.882C122.475 356.599 123.665 359.935 123.665 359.935Z" fill="black"/>
</g>
<path d="M120.702 359.935C120.702 359.935 117.8 376.96 119.871 385.293C120.926 389.934 122.904 394.315 125.687 398.176C125.687 398.176 115.295 413.552 117.379 426.424C119.462 439.295 124.819 440.969 124.819 440.969C124.819 440.969 120.255 464.665 128.539 472.973C136.822 481.281 155.137 490.42 175.497 486.688C195.858 482.955 209.573 482.112 213.727 475.044C217.881 467.976 215.388 436.815 215.388 436.815C215.388 436.815 214.557 402.33 213.727 381.126C212.896 359.922 210.007 342.897 200.012 334.589C190.018 326.281 145.985 339.165 132.693 347.882C119.4 356.599 120.702 359.935 120.702 359.935Z" stroke="#263238" stroke-width="1.193" stroke-linecap="round" stroke-linejoin="round"/>
<path d="M125.687 398.176C132.12 402.565 139.481 405.408 147.194 406.483C154.907 407.559 162.764 406.838 170.153 404.376" stroke="#263238" stroke-width="1.193" stroke-linecap="round" stroke-linejoin="round"/>
<path d="M124.856 440.969C124.856 440.969 146.047 461.751 180.966 441.8" stroke="#263238" stroke-width="1.193" stroke-linecap="round" stroke-linejoin="round"/>
<path d="M207.551 339.574C207.551 339.574 199.665 327.521 188.852 320.875C178.039 314.228 150.214 309.244 138.992 307.16C127.77 305.077 115.717 305.92 112.394 318.32C109.07 330.72 109.48 351.565 112.803 360.704C116.126 369.842 129.84 375.249 140.653 369.024C151.466 362.799 181.375 338.681 191.766 337.441C202.157 336.201 206.72 344.15 207.551 339.574Z" fill="#757575"/>
<mask id="mask3_6263_24331" style="mask-type:luminance" maskUnits="userSpaceOnUse" x="110" y="306" width="98" height="66">
<path d="M207.551 339.574C207.551 339.574 199.665 327.521 188.852 320.875C178.039 314.228 150.214 309.244 138.992 307.16C127.77 305.077 115.717 305.92 112.394 318.32C109.07 330.72 109.48 351.565 112.803 360.704C116.126 369.842 129.84 375.249 140.653 369.024C151.466 362.799 181.375 338.681 191.766 337.441C202.157 336.201 206.72 344.15 207.551 339.574Z" fill="white"/>
</mask>
<g mask="url(#mask3_6263_24331)">
<path opacity="0.3" d="M184.5 337.28C190.836 334.639 174.989 339.388 173.935 337.801C172.881 336.214 185.02 328.302 187.662 327.248C190.303 326.194 172.348 329.89 172.881 327.248C173.414 324.607 190.303 324.074 178.684 321.433C167.065 318.792 129.084 311.922 121.644 309.281C121.075 309.096 120.536 308.828 120.044 308.487C118.121 309.48 116.438 310.882 115.116 312.597C113.794 314.311 112.865 316.294 112.394 318.407C109.07 330.869 109.48 351.652 112.803 360.79C115.704 368.751 126.443 373.872 136.363 370.958C140.938 367.238 145.167 362.353 152.322 357.852C166.544 348.849 178.163 339.872 184.5 337.28Z" fill="black"/>
</g>
<path d="M207.551 339.574C207.551 339.574 199.665 327.521 188.852 320.875C178.039 314.228 150.214 309.244 138.992 307.16C127.77 305.077 115.717 305.92 112.394 318.32C109.07 330.72 109.48 351.565 112.803 360.704C116.126 369.842 129.84 375.249 140.653 369.024C151.466 362.799 181.375 338.681 191.766 337.441C202.157 336.201 206.72 344.15 207.551 339.574Z" stroke="#263238" stroke-width="1.193" stroke-linecap="round" stroke-linejoin="round"/>
<path d="M252.439 396.093C252.439 396.093 262 397.333 268.224 399.813C274.449 402.293 278.616 417.682 276.123 419.752C273.631 421.823 268.683 419.343 268.683 419.343C264.775 420.718 260.736 421.69 256.63 422.245C251.608 422.691 246.202 399.007 252.439 396.093Z" fill="#90CAF9" stroke="#263238" stroke-width="1.193" stroke-linecap="round" stroke-linejoin="round"/>
<path d="M220.856 394.841C220.856 394.841 222.518 394.841 231.657 390.687C240.796 386.533 248.285 386.533 254.101 395.647C259.916 404.761 262.409 416.02 259.061 422.666C255.713 429.313 243.276 433.888 236.617 433.888C229.958 433.888 229.177 425.208 229.177 425.208C229.177 425.208 228.346 411.494 224.217 406.509C220.088 401.524 219.195 396.093 220.856 394.841Z" fill="#757575" stroke="#263238" stroke-width="1.193" stroke-linecap="round" stroke-linejoin="round"/>
<path d="M190.105 339.574C199.243 336.251 210.887 338.334 215.041 349.965C219.195 361.596 222.927 395.672 222.927 395.672C222.927 395.672 233.319 396.912 237.473 401.5C241.627 406.088 243.673 417.706 242.879 423.522C242.085 429.338 227.503 440.138 210.887 440.56C194.271 440.981 182.206 433.12 176.39 411.878C170.575 390.637 172.881 358.36 172.881 358.36C172.881 358.36 174.989 348.849 178.163 346.729" fill="#90CAF9"/>
<mask id="mask4_6263_24331" style="mask-type:luminance" maskUnits="userSpaceOnUse" x="172" y="338" width="72" height="103">
<path d="M190.105 339.574C199.243 336.251 210.887 338.334 215.041 349.965C219.195 361.596 222.927 395.672 222.927 395.672C222.927 395.672 233.319 396.912 237.473 401.5C241.627 406.088 243.673 417.706 242.879 423.522C242.085 429.338 227.503 440.138 210.887 440.56C194.271 440.981 182.206 433.12 176.39 411.878C170.575 390.637 172.881 358.36 172.881 358.36C172.881 358.36 174.989 348.849 178.163 346.729" fill="white"/>
</mask>
<g mask="url(#mask4_6263_24331)">
<path opacity="0.3" d="M242.879 423.522C243.71 417.706 241.639 406.063 237.473 401.5C237.311 401.314 237.113 401.14 236.939 400.966C237.437 404.701 237.735 408.459 237.832 412.226C238.663 436.616 204.575 432.537 197.706 414.867C193.986 405.356 192.944 363.63 181.859 360.468C175.46 358.645 173.278 363.655 172.583 368.23C172.36 380.196 172.757 398.635 176.39 411.878C182.206 433.082 194.259 440.969 210.887 440.56C227.515 440.15 242.048 429.338 242.879 423.522Z" fill="black"/>
</g>
<path d="M190.105 339.574C199.243 336.251 210.887 338.334 215.041 349.965C219.195 361.596 222.927 395.672 222.927 395.672C222.927 395.672 233.319 396.912 237.473 401.5C241.627 406.088 243.673 417.706 242.879 423.522C242.085 429.338 227.503 440.138 210.887 440.56C194.271 440.981 182.206 433.12 176.39 411.878C170.575 390.637 172.881 358.36 172.881 358.36C172.881 358.36 174.989 348.849 178.163 346.729" stroke="#263238" stroke-width="1.193" stroke-linecap="round" stroke-linejoin="round"/>
<path d="M222.927 395.672C222.927 395.672 226.176 410.812 209.486 419.12" stroke="#263238" stroke-width="1.193" stroke-linecap="round" stroke-linejoin="round"/>
<path d="M140.244 131.75C140.244 128.303 141.831 125.761 145.415 125.761C148.998 125.761 150.66 128.241 150.66 131.75V143.84C150.66 147.287 149.06 149.829 145.415 149.829C141.769 149.829 140.244 147.349 140.244 143.84V131.75ZM141.794 143.951C141.794 146.531 142.811 148.415 145.415 148.415C148.019 148.415 149.135 146.531 149.135 143.951V131.651C149.135 129.084 148.093 127.187 145.415 127.187C142.736 127.187 141.794 129.084 141.794 131.651V143.951Z" fill="#263238"/>
<path d="M153.127 131.75C153.127 128.303 154.715 125.761 158.298 125.761C161.882 125.761 163.543 128.241 163.543 131.75V143.84C163.543 147.287 161.956 149.829 158.298 149.829C154.64 149.829 153.127 147.349 153.127 143.84V131.75ZM154.677 143.952C154.677 146.531 155.694 148.416 158.298 148.416C160.902 148.416 162.018 146.531 162.018 143.952V131.651C162.018 129.084 160.977 127.187 158.298 127.187C155.62 127.187 154.677 129.084 154.677 131.651V143.952Z" fill="#263238"/>
<path d="M171.021 125.972C174.666 125.972 176.092 128.266 176.092 131.713V134.292C176.092 138.012 174.356 139.897 170.612 139.897H167.673V149.643H166.16V125.972H171.021ZM170.612 138.483C173.352 138.483 174.53 137.243 174.53 134.391V131.614C174.53 129.047 173.65 127.385 171.021 127.385H167.673V138.545L170.612 138.483Z" fill="#263238"/>
<path d="M188.393 131.688V132.184H186.905V131.576C186.905 129.096 185.963 127.187 183.396 127.187C180.829 127.187 179.874 129.047 179.874 131.552C179.874 137.293 188.43 137.392 188.43 143.952C188.43 147.362 186.942 149.866 183.321 149.866C179.701 149.866 178.225 147.386 178.225 143.952V142.712H179.713V144.026C179.713 146.506 180.693 148.391 183.297 148.391C185.901 148.391 186.88 146.556 186.88 144.026C186.88 138.347 178.324 138.248 178.324 131.626C178.324 128.08 179.874 125.773 183.359 125.736C186.843 125.699 188.393 128.266 188.393 131.688Z" fill="#263238"/>
<path d="M192.287 146.667V149.643H190.774V146.667H192.287Z" fill="#263238"/>
<path d="M196.515 146.667V149.643H195.002V146.667H196.515Z" fill="#263238"/>
<path d="M200.743 146.667V149.643H199.218V146.667H200.743Z" fill="#263238"/>
<path d="M145.241 160.406C148.961 160.406 150.313 162.7 150.313 166.16V168.727C150.313 172.447 148.589 174.344 144.844 174.344H141.893V184.078H140.343V160.406H145.241ZM144.844 172.918C147.572 172.918 148.763 171.678 148.763 168.826V166.048C148.763 163.482 147.882 161.832 145.241 161.832H141.893V172.918H144.844Z" fill="#263238"/>
<path d="M154.479 178.833L153.239 184.078H151.813L156.984 160.369H159.253L164.523 184.078H162.973L161.733 178.833H154.479ZM154.715 177.481H161.609L158.125 162.167L154.715 177.481Z" fill="#263238"/>
<path d="M177.035 166.16V167.921H175.547V166.061C175.547 163.581 174.567 161.597 171.963 161.597C169.359 161.597 168.379 163.531 168.379 166.061V178.374C168.379 180.854 169.359 182.801 171.963 182.801C174.567 182.801 175.547 180.904 175.547 178.374V173.265H172.36V171.852H176.985V178.275C176.985 181.685 175.497 184.252 171.876 184.252C168.255 184.252 166.78 181.685 166.78 178.275V166.16C166.78 162.75 168.268 160.183 171.876 160.183C175.485 160.183 177.035 162.775 177.035 166.16Z" fill="#263238"/>
<path d="M187.661 171.368V172.782H181.201V182.702H188.976V184.128H179.639V160.406H188.976V161.832H181.201V171.368H187.661Z" fill="#263238"/>
<path d="M198.177 184.078H196.751V160.406H198.784L205.84 180.395V160.406H207.254V184.078H205.53L198.09 162.998L198.177 184.078Z" fill="#263238"/>
<path d="M209.882 166.16C209.882 162.713 211.47 160.183 215.053 160.183C218.637 160.183 220.298 162.663 220.298 166.16V178.275C220.298 181.722 218.699 184.252 215.053 184.252C211.408 184.252 209.882 181.772 209.882 178.275V166.16ZM211.432 178.374C211.432 180.941 212.449 182.838 215.053 182.838C217.657 182.838 218.773 180.941 218.773 178.374V166.061C218.773 163.494 217.732 161.597 215.053 161.597C212.375 161.597 211.432 163.494 211.432 166.061V178.374Z" fill="#263238"/>
<path d="M226.92 184.078V161.832H222.121V160.406H233.281V161.832H228.445V184.078H226.92Z" fill="#263238"/>
<path d="M248.099 171.938V173.352H241.974V184.078H240.424V160.406H249.414V161.832H241.974V171.938H248.099Z" fill="#263238"/>
<path d="M251.72 166.16C251.72 162.713 253.307 160.183 256.891 160.183C260.474 160.183 262.136 162.663 262.136 166.16V178.275C262.136 181.722 260.549 184.252 256.891 184.252C253.233 184.252 251.72 181.772 251.72 178.275V166.16ZM253.27 178.374C253.27 180.941 254.287 182.838 256.891 182.838C259.495 182.838 260.611 180.941 260.611 178.374V166.061C260.611 163.494 259.569 161.597 256.891 161.597C254.212 161.597 253.27 163.494 253.27 166.061V178.374Z" fill="#263238"/>
<path d="M266.154 178.362C266.154 180.842 267.108 182.863 269.712 182.863C272.316 182.863 273.259 180.904 273.259 178.362V160.406H274.71V178.3C274.71 181.672 273.296 184.276 269.675 184.276C266.054 184.276 264.604 181.672 264.604 178.3V160.406H266.154V178.362Z" fill="#263238"/>
<path d="M278.802 184.078H277.388V160.406H279.409L286.514 180.395V160.406H287.94V184.078H286.204L278.764 162.998L278.802 184.078Z" fill="#263238"/>
<path d="M295.814 160.406C299.472 160.406 301.059 162.812 301.059 166.296V178.188C301.059 181.672 299.472 184.078 295.814 184.078H290.606V160.406H295.814ZM295.814 182.652C298.455 182.652 299.534 180.866 299.534 178.262V166.222C299.534 163.618 298.418 161.832 295.814 161.832H292.206V182.652H295.814Z" fill="#263238"/>
<path d="M374.48 403.161L391.356 363.32H401.462V403.161H405.84V411.581H401.462V422.282H392.361V411.581H374.48V403.161ZM392.336 403.161V381.015L382.986 403.161H392.336Z" fill="#263238"/>
<path d="M409.299 377.468C409.299 368.044 414.259 362.588 423.361 362.588C432.462 362.588 437.422 367.982 437.422 377.468V408.121C437.422 417.558 432.462 423.001 423.361 423.001C414.259 423.001 409.299 417.607 409.299 408.121V377.468ZM418.562 408.716C418.562 412.932 420.41 414.532 423.361 414.532C426.312 414.532 428.16 412.932 428.16 408.716V376.886C428.16 372.67 426.3 371.07 423.361 371.07C420.422 371.07 418.562 372.67 418.562 376.886V408.716Z" fill="#263238"/>
<path d="M441.217 403.161L458.056 363.32H468.162V403.161H472.539V411.581H468.162V422.282H459.06V411.581H441.217V403.161ZM459.06 403.161V381.015L449.723 403.161H459.06Z" fill="#263238"/>
</svg>
