<svg xmlns="http://www.w3.org/2000/svg" width="282" height="67" fill="none" xmlns:v="https://vecta.io/nano"><g clip-path="url(#A)"><g clip-path="url(#B)"><g clip-path="url(#C)"><g clip-path="url(#D)"><g clip-path="url(#E)"><g clip-path="url(#F)"><path d="M14.368 45.639c2.251 0 4.005-1.154 5.262-3.461 1.257-2.316 2.173-5.606 2.748-9.87s.534-7.554-.123-9.87c-.657-2.307-2.066-3.461-4.227-3.461s-3.874 1.154-5.139 3.461c-1.257 2.316-2.185 5.606-2.785 9.87-.608 4.264-.608 7.554 0 9.87.6 2.308 2.021 3.461 4.264 3.461zm6.827 4.44c1.528 1.555 3.418 2.809 5.669 3.762l-4.19 5.342c-1.807-.385-3.943-1.639-6.408-3.762-.986-.886-1.918-2.027-2.797-3.424-9.472 0-13.305-6.551-11.497-19.652.928-6.797 2.843-11.784 5.743-14.961 2.908-3.177 6.646-4.765 11.214-4.765 4.576 0 7.879 1.588 9.908 4.765 2.021 3.177 2.567 8.164 1.639 14.961-1.257 8.979-4.35 14.89-9.279 17.733zm29.896-7.449l2.058-15.375c-.986-.117-2.276-.176-3.869-.176-1.586 0-2.912.669-3.98 2.007s-1.836 3.75-2.304 7.236c-.46 3.486-.431 5.869.086 7.148s1.544 1.919 3.081 1.919c.928 0 1.844-.293 2.748-.878s1.631-1.212 2.181-1.881zm0 8.616v-3.512c-3.122 2.843-6.162 4.264-9.119 4.264-4.272 0-6.708-2.705-7.308-8.114-.222-1.89-.14-4.243.246-7.061.378-2.818 1.035-5.23 1.972-7.236.928-2.007 2.021-3.649 3.278-4.929 2.358-2.341 5.291-3.512 8.799-3.512 4.157 0 8.347.418 12.57 1.254l-4.03 28.844h-6.408zm23.907-21.734c-.329.276-.575.527-.739.753l-1.811 13.118c.55.451 1.072.857 1.565 1.216s1.068.539 1.725.539c1.914 0 3.381-.652 4.399-1.956 1.01-1.313 1.762-3.474 2.255-6.484.435-3.403.366-5.773-.21-7.111s-1.544-2.007-2.908-2.007c-1.372 0-2.797.644-4.276 1.931zM63.747 51.245l5.669-41.473 7.801-1.079-2.218 16.303a53.36 53.36 0 0 0 1.516-1.216c.575-.477 1.22-.907 1.935-1.292 1.586-1.003 3.093-1.505 4.523-1.505 1.421 0 2.654.293 3.697.878 1.035.585 1.881 1.488 2.539 2.709 1.479 2.793 1.865 6.613 1.158 11.462-.772 5.125-2.333 9.025-4.683 11.701-2.194 2.567-4.769 3.85-7.727 3.85-2.465 0-4.383-.836-5.755-2.508l-.9-1.254-1.146 3.424h-6.408zm45.756-8.616l2.046-14.547c-1.2-.669-2.35-1.003-3.451-1.003-1.856 0-3.319.669-4.387 2.007s-1.836 3.75-2.304 7.236-.44 5.869.086 7.148c.518 1.279 1.545 1.919 3.081 1.919.928 0 1.844-.293 2.748-.878s1.631-1.212 2.181-1.881zm-10.93-17.934c1.257-1.254 2.653-2.157 4.189-2.709a13.58 13.58 0 0 1 4.683-.84c1.586 0 3.2.418 4.843 1.254l1.725-12.629 7.727-1.079-5.829 42.551h-6.408v-3.512c-3.122 2.843-6.161 4.264-9.119 4.264-4.272 0-6.712-2.705-7.32-8.114-.214-1.89-.131-4.243.247-7.061.386-2.818 1.043-5.23 1.972-7.236.936-2.007 2.033-3.637 3.29-4.891zm25.139 26.549l4.103-29.597h6.741l-.333 3.762h.161c.279-.167.677-.502 1.195-1.003s1.187-1.003 2.009-1.505c2.029-1.279 4.029-1.919 6.001-1.919 2.736 0 4.543.836 5.422 2.508s1.072 4.264.579 7.775l-2.797 19.978h-7.48l2.391-18.059c.271-2.115.242-3.549-.087-4.301s-1.068-1.129-2.218-1.129c-.986 0-1.889.305-2.711.915-1.536 1.229-2.387 2.011-2.551 2.345l-2.785 20.229h-7.64zm38.312-43.392c1.233 0 2.194.447 2.884 1.342.682.886.928 2.015.739 3.386-.197 1.363-.76 2.475-1.688 3.336-.928.87-2.009 1.304-3.241 1.304s-2.206-.435-2.921-1.304c-.714-.861-.989-1.961-.825-3.298.279-1.396.883-2.538 1.811-3.424.929-.895 2.009-1.342 3.241-1.342zm1.935 13.206l-4.19 30.186h-7.64l3.943-29.095 7.887-1.091z" fill="#fff"/></g></g></g></g><g clip-path="url(#G)"><g clip-path="url(#H)" fill="#a4b43f"><path d="M213.14 54.365l-31.865-15.931-2.427 1.211 34.292 17.147L281.724 22.5l-2.428-1.214-66.156 33.079zm0 4.853l-31.865-15.931-2.427 1.213 34.292 17.146 68.584-34.291-2.428-1.214-66.156 33.078zm0 4.855l-31.865-15.931-2.427 1.212L213.14 66.5l68.584-34.292-2.428-1.215-66.156 33.08zM247.432.5l-68.584 34.292 34.292 17.146 68.584-34.291L247.432.5zm-8.575 30.007c-4.731 2.367-12.408 2.367-17.143 0s-4.736-6.207 0-8.574 12.41-2.366 17.143 0 4.737 6.206 0 8.574z"/></g></g></g></g><defs><clipPath id="A"><path fill="#fff" transform="translate(.276 .5)" d="M0 0h281.447v66H0z"/></clipPath><clipPath id="B"><path fill="#fff" transform="translate(.276 .5)" d="M0 0h281.447v66H0z"/></clipPath><clipPath id="C"><path fill="#fff" transform="translate(.264 7.853)" d="M0 0h166.466v51.278H0z"/></clipPath><clipPath id="D"><path fill="#fff" transform="translate(.264 7.853)" d="M0 0h166.466v51.278H0z"/></clipPath><clipPath id="E"><path fill="#fff" transform="translate(.264 7.853)" d="M0 0h166.466v51.278H0z"/></clipPath><clipPath id="F"><path fill="#fff" transform="translate(.264 7.853)" d="M0 0h166.466v51.278H0z"/></clipPath><clipPath id="G"><path fill="#fff" transform="translate(178.848 .5)" d="M0 0h102.876v66H0z"/></clipPath><clipPath id="H"><path fill="#fff" transform="translate(178.848 .5)" d="M0 0h102.876v66H0z"/></clipPath></defs></svg>