<svg width="205" height="49" viewBox="0 0 205 49" fill="none" xmlns="http://www.w3.org/2000/svg">
<g clip-path="url(#clip0_6241_23654)">
<g clip-path="url(#clip1_6241_23654)">
<g clip-path="url(#clip2_6241_23654)">
<g clip-path="url(#clip3_6241_23654)">
<g clip-path="url(#clip4_6241_23654)">
<g clip-path="url(#clip5_6241_23654)">
<path d="M10.8287 33.7095C12.4554 33.7095 13.723 32.8719 14.6314 31.1968C15.5397 29.5156 16.2017 27.1273 16.6173 24.032C17.0329 20.9366 17.0032 18.5483 16.5282 16.8671C16.0533 15.192 15.0351 14.3544 13.4736 14.3544C11.9122 14.3544 10.6743 15.192 9.76003 16.8671C8.85166 18.5483 8.18078 20.9366 7.74737 24.032C7.30803 27.1273 7.30803 29.5156 7.74737 31.1968C8.18078 32.8719 9.20788 33.7095 10.8287 33.7095ZM15.7624 36.9323C16.8666 38.0612 18.2322 38.9716 19.8589 39.6635L16.831 43.5418C15.5249 43.2626 13.9813 42.3522 12.2001 40.8106C11.4877 40.1672 10.8138 39.3388 10.1786 38.3252C3.3332 38.3252 0.563572 33.5699 1.86972 24.0593C2.5406 19.1249 3.92393 15.5046 6.0197 13.1982C8.12141 10.8919 10.8228 9.73873 14.1237 9.73873C17.4307 9.73873 19.8173 10.8919 21.2838 13.1982C22.7443 15.5046 23.1391 19.1249 22.4682 24.0593C21.5599 30.5777 19.3246 34.8687 15.7624 36.9323ZM37.3672 31.5245L38.8544 20.3631C38.142 20.2781 37.2099 20.2356 36.0581 20.2356C34.9122 20.2356 33.9534 20.7211 33.1816 21.6922C32.4098 22.6633 31.8547 24.4143 31.5163 26.9452C31.1838 29.4761 31.2046 31.2059 31.5786 32.1345C31.9526 33.0631 32.6948 33.5274 33.805 33.5274C34.4759 33.5274 35.1378 33.315 35.7909 32.8901C36.444 32.4653 36.9694 32.0101 37.3672 31.5245ZM37.3672 37.7789V35.2298C35.1111 37.2934 32.9144 38.3252 30.7771 38.3252C27.6898 38.3252 25.9295 36.3618 25.4961 32.4349C25.3358 31.0633 25.3952 29.3547 25.6742 27.3094C25.9473 25.264 26.4223 23.513 27.0991 22.0564C27.77 20.5998 28.5596 19.4071 29.468 18.4785C31.1719 16.7791 33.2914 15.9294 35.8265 15.9294C38.8307 15.9294 41.8586 16.2329 44.9102 16.8398L41.9981 37.7789H37.3672ZM54.6439 22.0018C54.4065 22.2021 54.2284 22.3841 54.1096 22.548L52.8005 32.0708C53.1983 32.3985 53.5753 32.6929 53.9315 32.9538C54.2877 33.2148 54.7033 33.3453 55.1783 33.3453C56.5616 33.3453 57.6214 32.8719 58.3576 31.9251C59.0878 30.9722 59.631 29.4033 59.9873 27.2183C60.3019 24.7481 60.2515 23.0275 59.8359 22.0564C59.4203 21.0853 58.7197 20.5998 57.7342 20.5998C56.7427 20.5998 55.7126 21.0671 54.6439 22.0018ZM46.5132 37.7789L50.6097 7.67213L56.2469 6.88918L54.6439 18.7243C54.9586 18.4816 55.3237 18.1872 55.7393 17.8413C56.1549 17.4953 56.621 17.1827 57.1375 16.9035C58.2833 16.1752 59.3728 15.8111 60.4058 15.8111C61.4329 15.8111 62.3235 16.0235 63.0775 16.4484C63.8256 16.8732 64.4371 17.5287 64.912 18.4148C65.9807 20.442 66.2597 23.2156 65.7492 26.7358C65.1911 30.4563 64.063 33.2877 62.365 35.2298C60.7799 37.0931 58.9186 38.0248 56.7813 38.0248C55.0002 38.0248 53.6139 37.4178 52.6224 36.204C52.3849 35.8762 52.1682 35.5728 51.9723 35.2936L51.1441 37.7789H46.5132ZM79.5795 31.5245L81.0578 20.9639C80.191 20.4784 79.3598 20.2356 78.5642 20.2356C77.2225 20.2356 76.1657 20.7211 75.3939 21.6922C74.622 22.6633 74.0669 24.4143 73.7285 26.9452C73.3901 29.4761 73.4109 31.2059 73.7909 32.1345C74.1649 33.0631 74.907 33.5274 76.0172 33.5274C76.6881 33.5274 77.3501 33.315 78.0032 32.8901C78.6562 32.4653 79.1817 32.0101 79.5795 31.5245ZM71.6802 18.5058C72.5886 17.5955 73.5979 16.94 74.7081 16.5394C75.8183 16.1327 76.9464 15.9294 78.0922 15.9294C79.2381 15.9294 80.4047 16.2329 81.5921 16.8398L82.8389 7.67213L88.4227 6.88918L84.2103 37.7789H79.5795V35.2298C77.3234 37.2934 75.1267 38.3252 72.9894 38.3252C69.9021 38.3252 68.1388 36.3618 67.6995 32.4349C67.5451 31.0633 67.6045 29.3547 67.8776 27.3094C68.1566 25.264 68.6316 23.513 69.3025 22.0564C69.9793 20.5998 70.7719 19.4162 71.6802 18.5058ZM89.8475 37.7789L92.8131 16.2936H97.6844L97.444 19.0248H97.5597C97.7616 18.9034 98.0495 18.6606 98.4236 18.2965C98.7976 17.9323 99.2815 17.5681 99.8752 17.204C101.342 16.2754 102.787 15.8111 104.212 15.8111C106.189 15.8111 107.495 16.418 108.131 17.6319C108.766 18.8457 108.905 20.7272 108.549 23.2763L106.528 37.7789H101.122L102.85 24.6692C103.046 23.1337 103.025 22.0928 102.787 21.5466C102.55 21.0003 102.015 20.7272 101.184 20.7272C100.472 20.7272 99.8188 20.9487 99.2251 21.3918C98.1148 22.284 97.5004 22.8515 97.3816 23.0942L95.369 37.7789H89.8475ZM117.535 6.27922C118.425 6.27922 119.12 6.60393 119.619 7.25334C120.112 7.89669 120.29 8.71605 120.153 9.71142C120.011 10.7007 119.604 11.5079 118.933 12.1331C118.262 12.7643 117.481 13.0799 116.591 13.0799C115.7 13.0799 114.997 12.7643 114.48 12.1331C113.964 11.5079 113.765 10.7098 113.884 9.73873C114.085 8.72515 114.522 7.89669 115.193 7.25334C115.864 6.60393 116.644 6.27922 117.535 6.27922ZM118.933 15.8657L115.905 37.7789H110.384L113.233 16.6577L118.933 15.8657Z" fill="white"/>
</g>
</g>
</g>
</g>
<g clip-path="url(#clip6_6241_23654)">
<g clip-path="url(#clip7_6241_23654)">
<path d="M154.476 40.0442L131.448 28.4793L129.693 29.3587L154.476 41.8062L204.039 16.912L202.285 16.031L154.476 40.0442Z" fill="#A4B43F"/>
<path d="M154.476 43.5674L131.448 32.0025L129.693 32.8827L154.476 45.3294L204.039 20.436L202.285 19.555L154.476 43.5674Z" fill="#A4B43F"/>
<path d="M154.476 47.0913L131.448 35.5265L129.693 36.4067L154.476 48.8533L204.039 23.9592L202.285 23.0774L154.476 47.0913Z" fill="#A4B43F"/>
<path d="M179.258 0.941345L129.693 25.8355L154.476 38.2822L204.039 13.3888L179.258 0.941345ZM173.061 22.7242C169.642 24.4426 164.094 24.4426 160.672 22.7242C157.249 21.0051 157.249 18.2184 160.672 16.5001C164.092 14.7825 169.64 14.7825 173.061 16.5001C176.483 18.2184 176.483 21.0051 173.061 22.7242Z" fill="#A4B43F"/>
</g>
</g>
</g>
</g>
<defs>
<clipPath id="clip0_6241_23654">
<rect width="203.393" height="47.912" fill="white" transform="translate(0.645508 0.941345)"/>
</clipPath>
<clipPath id="clip1_6241_23654">
<rect width="203.393" height="47.912" fill="white" transform="translate(0.645508 0.941345)"/>
</clipPath>
<clipPath id="clip2_6241_23654">
<rect width="120.3" height="37.2245" fill="white" transform="translate(0.636108 6.27922)"/>
</clipPath>
<clipPath id="clip3_6241_23654">
<rect width="120.3" height="37.2245" fill="white" transform="translate(0.636108 6.27922)"/>
</clipPath>
<clipPath id="clip4_6241_23654">
<rect width="120.3" height="37.2245" fill="white" transform="translate(0.636108 6.27922)"/>
</clipPath>
<clipPath id="clip5_6241_23654">
<rect width="120.3" height="37.2245" fill="white" transform="translate(0.636108 6.27922)"/>
</clipPath>
<clipPath id="clip6_6241_23654">
<rect width="74.3453" height="47.912" fill="white" transform="translate(129.693 0.941345)"/>
</clipPath>
<clipPath id="clip7_6241_23654">
<rect width="74.3453" height="47.912" fill="white" transform="translate(129.693 0.941345)"/>
</clipPath>
</defs>
</svg>
