<svg width="282" height="67" viewBox="0 0 282 67" fill="none" xmlns="http://www.w3.org/2000/svg">
<g clip-path="url(#clip0_6239_36738)">
<g clip-path="url(#clip1_6239_36738)">
<g clip-path="url(#clip2_6239_36738)">
<g clip-path="url(#clip3_6239_36738)">
<g clip-path="url(#clip4_6239_36738)">
<g clip-path="url(#clip5_6239_36738)">
<path d="M14.3678 45.6389C16.6189 45.6389 18.3728 44.4851 19.6298 42.1776C20.8868 39.8617 21.8028 36.5718 22.3778 32.3079C22.9529 28.0439 22.9118 24.754 22.2546 22.4381C21.5974 20.1306 20.1884 18.9768 18.0278 18.9768C15.8671 18.9768 14.1542 20.1306 12.8891 22.4381C11.6321 24.754 10.7038 28.0439 10.104 32.3079C9.49609 36.5718 9.49609 39.8617 10.104 42.1776C10.7038 44.4851 12.125 45.6389 14.3678 45.6389ZM21.1948 50.0784C22.7229 51.6335 24.6124 52.8876 26.8635 53.8407L22.6736 59.1831C20.8662 58.7985 18.7302 57.5444 16.2656 55.4208C15.2797 54.5346 14.3473 53.3934 13.4682 51.9972C3.99588 51.9972 0.163393 45.4466 1.97078 32.3455C2.89912 25.5483 4.81331 20.5612 7.71335 17.3841C10.6216 14.2071 14.3596 12.6186 18.9274 12.6186C23.5034 12.6186 26.806 14.2071 28.8352 17.3841C30.8561 20.5612 31.4025 25.5483 30.4741 32.3455C29.2172 41.3248 26.1241 47.2358 21.1948 50.0784ZM51.0907 42.6291L53.1486 27.2539C52.1628 27.1368 50.873 27.0783 49.2792 27.0783C47.6936 27.0783 46.3668 27.7471 45.2988 29.0848C44.2308 30.4225 43.4627 32.8346 42.9944 36.321C42.5343 39.8074 42.5631 42.1901 43.0807 43.4693C43.5982 44.7485 44.6252 45.3881 46.1615 45.3881C47.0898 45.3881 48.0058 45.0955 48.9095 44.5102C49.8132 43.925 50.5403 43.2979 51.0907 42.6291ZM51.0907 51.2447V47.7332C47.9688 50.5758 44.9291 51.9972 41.9716 51.9972C37.6996 51.9972 35.2637 49.2925 34.664 43.8832C34.4422 41.9937 34.5243 39.6401 34.9104 36.8226C35.2884 34.0051 35.9456 31.593 36.8821 29.5865C37.8105 27.5799 38.9031 25.9371 40.1601 24.6579C42.5179 22.3169 45.4508 21.1464 48.9588 21.1464C53.1158 21.1464 57.3056 21.5645 61.5284 22.4005L57.4987 51.2447H51.0907ZM74.9975 29.5112C74.6689 29.7871 74.4224 30.038 74.2581 30.2637L72.4466 43.3815C72.9971 43.833 73.5187 44.2385 74.0117 44.598C74.5046 44.9575 75.0797 45.1373 75.7369 45.1373C77.6511 45.1373 79.1175 44.4851 80.1363 43.1809C81.1468 41.8682 81.8985 39.707 82.3914 36.6972C82.8268 33.2944 82.757 30.9242 82.1819 29.5865C81.6068 28.2488 80.6374 27.5799 79.2736 27.5799C77.9017 27.5799 76.4763 28.2237 74.9975 29.5112ZM63.7465 51.2447L69.4152 9.77179L77.2157 8.69327L74.9975 24.9965C75.4329 24.6621 75.9382 24.2566 76.5133 23.78C77.0883 23.3035 77.7333 22.8729 78.448 22.4883C80.0336 21.485 81.5411 20.9834 82.9706 20.9834C84.3918 20.9834 85.6242 21.276 86.6675 21.8613C87.7027 22.4465 88.5488 23.3495 89.2061 24.5701C90.6848 27.3626 91.071 31.1834 90.3644 36.0325C89.5922 41.1576 88.0313 45.0578 85.6817 47.7332C83.4881 50.2999 80.9126 51.5833 77.9551 51.5833C75.4904 51.5833 73.5721 50.7472 72.2002 49.0751C71.8716 48.6236 71.5717 48.2056 71.3006 47.821L70.1545 51.2447H63.7465ZM109.502 42.6291L111.548 28.0816C110.348 27.4127 109.198 27.0783 108.097 27.0783C106.241 27.0783 104.778 27.7471 103.71 29.0848C102.642 30.4225 101.874 32.8346 101.406 36.321C100.938 39.8074 100.966 42.1901 101.492 43.4693C102.01 44.7485 103.037 45.3881 104.573 45.3881C105.501 45.3881 106.417 45.0955 107.321 44.5102C108.225 43.925 108.952 43.2979 109.502 42.6291ZM98.5716 24.6955C99.8286 23.4414 101.225 22.5385 102.761 21.9867C104.298 21.4265 105.859 21.1464 107.444 21.1464C109.03 21.1464 110.644 21.5645 112.287 22.4005L114.012 9.77179L121.739 8.69327L115.91 51.2447H109.502V47.7332C106.38 50.5758 103.341 51.9972 100.383 51.9972C96.1111 51.9972 93.6711 49.2925 93.0632 43.8832C92.8496 41.9937 92.9317 39.6401 93.3097 36.8226C93.6958 34.0051 94.353 31.593 95.2814 29.5865C96.2179 27.5799 97.3147 25.9496 98.5716 24.6955ZM123.711 51.2447L127.814 21.6481H134.555L134.222 25.4103H134.383C134.662 25.2431 135.06 24.9087 135.578 24.4071C136.095 23.9054 136.765 23.4038 137.587 22.9022C139.616 21.623 141.616 20.9834 143.588 20.9834C146.324 20.9834 148.131 21.8195 149.01 23.4916C149.889 25.1637 150.082 27.7555 149.589 31.267L146.792 51.2447H139.312L141.703 33.1857C141.974 31.0705 141.945 29.6366 141.616 28.8842C141.288 28.1317 140.548 27.7555 139.398 27.7555C138.412 27.7555 137.509 28.0607 136.687 28.671C135.151 29.9 134.3 30.6817 134.136 31.0162L131.351 51.2447H123.711ZM162.023 7.85303C163.256 7.85303 164.217 8.30032 164.907 9.19491C165.589 10.0811 165.835 11.2098 165.646 12.581C165.449 13.9437 164.886 15.0557 163.958 15.9169C163.03 16.7864 161.949 17.2211 160.717 17.2211C159.485 17.2211 158.511 16.7864 157.796 15.9169C157.082 15.0557 156.807 13.9563 156.971 12.6186C157.25 11.2224 157.854 10.0811 158.782 9.19491C159.711 8.30032 160.791 7.85303 162.023 7.85303ZM163.958 21.0586L159.768 51.2447H152.128L156.071 22.1497L163.958 21.0586Z" fill="white"/>
</g>
</g>
</g>
</g>
<g clip-path="url(#clip6_6239_36738)">
<g clip-path="url(#clip7_6239_36738)">
<path d="M213.14 54.3651L181.275 38.4342L178.848 39.6456L213.14 56.7923L281.724 22.5L279.296 21.2864L213.14 54.3651Z" fill="#A4B43F"/>
<path d="M213.14 59.2184L181.275 43.2874L178.848 44.5L213.14 61.6456L281.724 27.3543L279.296 26.1407L213.14 59.2184Z" fill="#A4B43F"/>
<path d="M213.14 64.0728L181.275 48.1419L178.848 49.3544L213.14 66.5L281.724 32.2077L279.296 30.993L213.14 64.0728Z" fill="#A4B43F"/>
<path d="M247.432 0.5L178.848 34.7923L213.14 51.9379L281.724 17.6467L247.432 0.5ZM238.857 30.5065C234.126 32.8735 226.449 32.8735 221.714 30.5065C216.978 28.1383 216.978 24.2996 221.714 21.9326C226.447 19.5666 234.124 19.5666 238.857 21.9326C243.594 24.2996 243.594 28.1383 238.857 30.5065Z" fill="#A4B43F"/>
</g>
</g>
</g>
</g>
<defs>
<clipPath id="clip0_6239_36738">
<rect width="281.447" height="66" fill="white" transform="translate(0.276489 0.5)"/>
</clipPath>
<clipPath id="clip1_6239_36738">
<rect width="281.447" height="66" fill="white" transform="translate(0.276489 0.5)"/>
</clipPath>
<clipPath id="clip2_6239_36738">
<rect width="166.466" height="51.2777" fill="white" transform="translate(0.263672 7.85303)"/>
</clipPath>
<clipPath id="clip3_6239_36738">
<rect width="166.466" height="51.2777" fill="white" transform="translate(0.263672 7.85303)"/>
</clipPath>
<clipPath id="clip4_6239_36738">
<rect width="166.466" height="51.2777" fill="white" transform="translate(0.263672 7.85303)"/>
</clipPath>
<clipPath id="clip5_6239_36738">
<rect width="166.466" height="51.2777" fill="white" transform="translate(0.263672 7.85303)"/>
</clipPath>
<clipPath id="clip6_6239_36738">
<rect width="102.876" height="66" fill="white" transform="translate(178.848 0.5)"/>
</clipPath>
<clipPath id="clip7_6239_36738">
<rect width="102.876" height="66" fill="white" transform="translate(178.848 0.5)"/>
</clipPath>
</defs>
</svg>
