<svg width="18" height="21" viewBox="0 0 18 21" fill="none" xmlns="http://www.w3.org/2000/svg">
<path id="Shape" fill-rule="evenodd" clip-rule="evenodd" d="M14.532 3.12467C13.2698 1.48702 11.1449 0.5 9.06473 0.5H8.97528C6.93888 0.5 4.88059 1.4417 3.59654 3.01187C2.73284 4.08854 2.31344 5.18834 2.31344 6.87029V7.29634C2.31344 8.55229 2.00339 9.29254 1.25002 10.1456C0.697431 10.7741 0.519531 11.5808 0.519531 12.456C0.519531 13.3302 0.807751 14.1601 1.3832 14.8339C2.13554 15.6417 3.19799 16.1573 4.28329 16.247C5.85458 16.4262 7.42588 16.4937 9.02003 16.4937C10.6132 16.4937 12.1855 16.3809 13.7568 16.247C14.8411 16.1573 15.9035 15.6417 16.6568 14.8339C17.2323 14.1601 17.5195 13.3302 17.5195 12.456C17.5195 11.5808 17.3426 10.7741 16.789 10.1456C16.0585 9.29254 15.7266 8.55229 15.7266 7.29634V6.87029C15.7266 5.23264 15.3509 4.17919 14.532 3.12467ZM11.0287 17.7279C10.5288 17.6221 7.48263 17.6221 6.98273 17.7279C6.55533 17.8266 6.09318 18.0572 6.09318 18.5608C6.11803 19.0402 6.39933 19.4653 6.78888 19.7342C7.29178 20.128 7.88313 20.3767 8.50233 20.4664C8.83228 20.5117 9.16823 20.5107 9.51008 20.4664C10.1283 20.3767 10.7196 20.128 11.2235 19.7352C11.6121 19.4653 11.8934 19.0402 11.9182 18.5608C11.9182 18.0572 11.4561 17.8266 11.0287 17.7279Z" fill="#AFB4BD"/>
</svg>
