<svg width="24" height="24" viewBox="0 0 24 24" fill="none" xmlns="http://www.w3.org/2000/svg">
<path d="M14.7 21C15.1971 21 15.6 20.5971 15.6 20.1C15.6 19.6029 15.1971 19.2 14.7 19.2H7.2C5.87452 19.2 4.8 18.1255 4.8 16.8V7.2C4.8 5.87452 5.87452 4.8 7.2 4.8H14.7C15.1971 4.8 15.6 4.39706 15.6 3.9C15.6 3.40294 15.1971 3 14.7 3H7.2C4.8804 3 3 4.8804 3 7.2V16.8C3 19.1196 4.8804 21 7.2 21H14.7ZM15.8895 7.43868C16.2548 7.10154 16.8242 7.12431 17.1613 7.48955L20.7613 11.3896C21.0796 11.7343 21.0796 12.2657 20.7613 12.6105L17.1613 16.5105C16.8242 16.8757 16.2548 16.8985 15.8895 16.5613C15.5243 16.2242 15.5015 15.6548 15.8387 15.2896L18.0444 12.9H8.7C8.20294 12.9 7.8 12.4971 7.8 12C7.8 11.5029 8.20294 11.1 8.7 11.1H18.0444L15.8387 8.71046C15.5015 8.34522 15.5243 7.77583 15.8895 7.43868Z" fill="#F4F5F7"/>
</svg>
