<svg width="25" height="25" viewBox="0 0 25 25" fill="none" xmlns="http://www.w3.org/2000/svg">
<path d="M13.6456 12.6061H20.3603C20.7005 12.259 21.1412 12.0107 21.6353 11.9082C21.4014 6.86945 17.2422 2.85608 12.1456 2.85608C6.89892 2.85608 2.64563 7.10937 2.64563 12.3561C2.64563 17.4351 6.63135 21.5831 11.6456 21.8431V20.3561L11.6457 20.3407C7.46029 20.0826 4.14563 16.6064 4.14563 12.3561C4.14563 8.02144 7.59303 4.49198 11.8956 4.35991V10.8561C11.8956 11.8226 12.6791 12.6061 13.6456 12.6061ZM13.6456 11.1061C13.5076 11.1061 13.3956 10.9942 13.3956 10.8561V4.45316C16.8129 4.98936 19.5124 7.68883 20.0485 11.1061H13.6456ZM22.1456 12.8561C21.3172 12.8561 20.6456 13.5277 20.6456 14.3561V22.3561C20.6456 23.1845 21.3172 23.8561 22.1456 23.8561C22.9741 23.8561 23.6456 23.1845 23.6456 22.3561V14.3561C23.6456 13.5277 22.9741 12.8561 22.1456 12.8561ZM14.1456 18.8561C13.3172 18.8561 12.6456 19.5277 12.6456 20.3561V22.3561C12.6456 23.1845 13.3172 23.8561 14.1456 23.8561C14.9741 23.8561 15.6456 23.1845 15.6456 22.3561V20.3561C15.6456 19.5277 14.9741 18.8561 14.1456 18.8561ZM16.6456 17.3561C16.6456 16.5277 17.3172 15.8561 18.1456 15.8561C18.9741 15.8561 19.6456 16.5277 19.6456 17.3561V22.3561C19.6456 23.1845 18.9741 23.8561 18.1456 23.8561C17.3172 23.8561 16.6456 23.1845 16.6456 22.3561V17.3561Z" fill="#F3EEFE"/>
</svg>
