<svg width="25" height="25" viewBox="0 0 25 25" fill="none" xmlns="http://www.w3.org/2000/svg">
<path fill-rule="evenodd" clip-rule="evenodd" d="M12.8956 4.41165C10.6135 4.41165 8.42491 5.3182 6.81122 6.93189C5.19754 8.54557 4.29098 10.7342 4.29098 13.0163C4.29098 15.2984 5.19754 17.487 6.81122 19.1007C8.42491 20.7144 10.6135 21.6209 12.8956 21.6209C15.1777 21.6209 17.3664 20.7144 18.98 19.1007C20.5937 17.487 21.5003 15.2984 21.5003 13.0163C21.5003 10.7342 20.5937 8.54557 18.98 6.93189C17.3664 5.3182 15.1777 4.41165 12.8956 4.41165ZM2.89563 13.0163C2.89563 7.49351 7.37284 3.0163 12.8956 3.0163C18.4184 3.0163 22.8956 7.49351 22.8956 13.0163C22.8956 18.5391 18.4184 23.0163 12.8956 23.0163C7.37284 23.0163 2.89563 18.5391 2.89563 13.0163ZM12.8956 6.73723C13.0807 6.73723 13.2581 6.81073 13.389 6.94157C13.5198 7.07241 13.5933 7.24987 13.5933 7.4349V7.72978C15.1096 8.00141 16.384 9.14095 16.384 10.6907C16.384 10.8758 16.3105 11.0532 16.1797 11.184C16.0488 11.3149 15.8714 11.3884 15.6863 11.3884C15.5013 11.3884 15.3238 11.3149 15.193 11.184C15.0622 11.0532 14.9887 10.8758 14.9887 10.6907C14.9887 10.06 14.464 9.39118 13.5933 9.15304V12.3809C15.1096 12.6526 16.384 13.7921 16.384 15.3419C16.384 16.8916 15.1096 18.0312 13.5933 18.3028V18.5977C13.5933 18.7827 13.5198 18.9602 13.389 19.091C13.2581 19.2219 13.0807 19.2954 12.8956 19.2954C12.7106 19.2954 12.5331 19.2219 12.4023 19.091C12.2715 18.9602 12.198 18.7827 12.198 18.5977V18.3028C10.6817 18.0312 9.40726 16.8916 9.40726 15.3419C9.40726 15.1568 9.48076 14.9794 9.6116 14.8485C9.74244 14.7177 9.9199 14.6442 10.1049 14.6442C10.29 14.6442 10.4674 14.7177 10.5983 14.8485C10.7291 14.9794 10.8026 15.1568 10.8026 15.3419C10.8026 15.9726 11.3273 16.6414 12.198 16.8786V13.6516C10.6817 13.38 9.40726 12.2405 9.40726 10.6907C9.40726 9.14095 10.6817 8.00141 12.198 7.72978V7.4349C12.198 7.24987 12.2715 7.07241 12.4023 6.94157C12.5331 6.81073 12.7106 6.73723 12.8956 6.73723ZM12.198 9.15304C11.3273 9.39118 10.8026 10.06 10.8026 10.6907C10.8026 11.3214 11.3273 11.9903 12.198 12.2275V9.15304ZM13.5933 13.8042V16.8796C14.464 16.6414 14.9887 15.9735 14.9887 15.3419C14.9887 14.7112 14.464 14.0414 13.5933 13.8042Z" fill="#F3EEFE"/>
</svg>
