<svg width="25" height="25" viewBox="0 0 25 25" fill="none" xmlns="http://www.w3.org/2000/svg">
<path d="M6.14563 8.18976C6.14563 6.80905 7.26492 5.68976 8.64563 5.68976C10.0263 5.68976 11.1456 6.80905 11.1456 8.18976C11.1456 9.57047 10.0263 10.6898 8.64563 10.6898C7.26492 10.6898 6.14563 9.57047 6.14563 8.18976ZM8.64563 4.18976C6.43649 4.18976 4.64563 5.98062 4.64563 8.18976C4.64563 10.3989 6.43649 12.1898 8.64563 12.1898C10.8548 12.1898 12.6456 10.3989 12.6456 8.18976C12.6456 5.98062 10.8548 4.18976 8.64563 4.18976ZM16.1456 9.18976C16.1456 8.36133 16.8172 7.68976 17.6456 7.68976C18.4741 7.68976 19.1456 8.36133 19.1456 9.18976C19.1456 10.0182 18.4741 10.6898 17.6456 10.6898C16.8172 10.6898 16.1456 10.0182 16.1456 9.18976ZM17.6456 6.18976C15.9888 6.18976 14.6456 7.5329 14.6456 9.18976C14.6456 10.8466 15.9888 12.1898 17.6456 12.1898C19.3025 12.1898 20.6456 10.8466 20.6456 9.18976C20.6456 7.5329 19.3025 6.18976 17.6456 6.18976ZM14.8941 19.2275C15.5963 19.5129 16.4973 19.6898 17.6466 19.6898C19.9289 19.6898 21.2323 18.9924 21.9435 18.1318C22.2886 17.7142 22.4643 17.2924 22.5533 16.9693C22.5978 16.8079 22.621 16.6698 22.6332 16.5668C22.6392 16.5151 22.6426 16.4719 22.6444 16.4385C22.6454 16.4217 22.6459 16.4074 22.6462 16.3957L22.6465 16.38L22.6466 16.3737L22.6466 16.3709L22.6466 16.3683C22.6466 15.1651 21.6712 14.1898 20.4681 14.1898H14.8252C14.7978 14.1898 14.7705 14.1903 14.7433 14.1913C15.1373 14.6024 15.4243 15.1168 15.5597 15.6898H20.4681C20.8396 15.6898 21.1414 15.9884 21.1466 16.3587C21.1462 16.3644 21.1453 16.3753 21.1435 16.3909C21.1391 16.4285 21.1291 16.4913 21.1071 16.5709C21.0633 16.73 20.9734 16.951 20.7872 17.1763C20.436 17.6014 19.6143 18.1898 17.6466 18.1898C16.6665 18.1898 15.9708 18.0438 15.4759 17.8447C15.3687 18.2449 15.1908 18.7276 14.8941 19.2275ZM4.89563 14.1898C3.65299 14.1898 2.64563 15.1971 2.64563 16.4398V16.6908L2.64563 16.692L2.64564 16.6946L2.6457 16.7008L2.64598 16.7174C2.64627 16.7304 2.6468 16.7469 2.64773 16.7668C2.64959 16.8067 2.65308 16.8602 2.65961 16.9255C2.67264 17.0559 2.69796 17.2347 2.74728 17.4461C2.84558 17.8674 3.04217 18.4302 3.43746 18.9949C4.25629 20.1646 5.81741 21.1898 8.64563 21.1898C11.4738 21.1898 13.035 20.1646 13.8538 18.9949C14.2491 18.4302 14.4457 17.8674 14.544 17.4461C14.5933 17.2347 14.6186 17.0559 14.6317 16.9255C14.6382 16.8602 14.6417 16.8067 14.6435 16.7668C14.6445 16.7469 14.645 16.7304 14.6453 16.7174L14.6456 16.7008L14.6456 16.6946L14.6456 16.692L14.6456 16.4398C14.6456 15.1971 13.6383 14.1898 12.3956 14.1898H4.89563ZM4.1461 16.6969L4.14563 16.6844V16.4398C4.14563 16.0255 4.48142 15.6898 4.89563 15.6898H12.3956C12.8098 15.6898 13.1456 16.0255 13.1456 16.4398V16.6844L13.1452 16.6969C13.1445 16.712 13.1428 16.739 13.1391 16.7763C13.1316 16.851 13.1159 16.9651 13.0832 17.1053C13.0175 17.3871 12.8859 17.7619 12.625 18.1347C12.1313 18.8399 11.0674 19.6898 8.64563 19.6898C6.22385 19.6898 5.15997 18.8399 4.6663 18.1347C4.40534 17.7619 4.27381 17.3871 4.20804 17.1053C4.17533 16.9651 4.15963 16.851 4.15216 16.7763C4.14844 16.739 4.1468 16.712 4.1461 16.6969Z" fill="#F3EEFE"/>
</svg>
